<?xml version="1.0" encoding="UTF-8"?>
<svg width="32" height="32" viewBox="0 0 32 32" fill="none" xmlns="http://www.w3.org/2000/svg">
    <path d="M16 2C10.477 2 6 6.477 6 12C6 19.5 16 30 16 30C16 30 26 19.5 26 12C26 6.477 21.523 2 16 2ZM16 16C13.791 16 12 14.209 12 12C12 9.791 13.791 8 16 8C18.209 8 20 9.791 20 12C20 14.209 18.209 16 16 16Z" fill="#2196F3"/>
    <path d="M16 4C11.582 4 8 7.582 8 12C8 18.25 16 27 16 27C16 27 24 18.25 24 12C24 7.582 20.418 4 16 4ZM16 14C14.895 14 14 13.105 14 12C14 10.895 14.895 10 16 10C17.105 10 18 10.895 18 12C18 13.105 17.105 14 16 14Z" fill="#FFFFFF"/>
</svg> 